<mxfile host="app.diagrams.net" modified="2022-11-21T06:01:54.154Z" agent="5.0 (Macintosh; Intel Mac OS X 10_15_7) AppleWebKit/537.36 (KHTML, like Gecko) Chrome/107.0.0.0 Safari/537.36" etag="fhtfROPGtBToXNjv0Aap" version="20.3.6" type="github">
  <diagram id="boKPOhT0eAC84bNefaaI" name="Page-1">
    <mxGraphModel dx="1426" dy="769" grid="1" gridSize="10" guides="1" tooltips="1" connect="1" arrows="1" fold="1" page="1" pageScale="1" pageWidth="850" pageHeight="1100" math="0" shadow="0">
      <root>
        <mxCell id="0" />
        <mxCell id="1" parent="0" />
        <mxCell id="52CNj9GNZ4_Rj_LzGSZ5-1" value="" style="rounded=1;whiteSpace=wrap;html=1;fillColor=#dae8fc;strokeColor=#6c8ebf;sketch=1;" vertex="1" parent="1">
          <mxGeometry x="110" y="210" width="160" height="320" as="geometry" />
        </mxCell>
        <mxCell id="52CNj9GNZ4_Rj_LzGSZ5-2" value="Client functions" style="rounded=0;whiteSpace=wrap;html=1;sketch=1;fillColor=#fff2cc;strokeColor=#d6b656;" vertex="1" parent="1">
          <mxGeometry x="130" y="240" width="120" height="60" as="geometry" />
        </mxCell>
        <mxCell id="52CNj9GNZ4_Rj_LzGSZ5-23" style="edgeStyle=orthogonalEdgeStyle;rounded=0;orthogonalLoop=1;jettySize=auto;html=1;exitX=0.75;exitY=0;exitDx=0;exitDy=0;entryX=0.75;entryY=1;entryDx=0;entryDy=0;sketch=1;" edge="1" parent="1" source="52CNj9GNZ4_Rj_LzGSZ5-3" target="52CNj9GNZ4_Rj_LzGSZ5-2">
          <mxGeometry relative="1" as="geometry" />
        </mxCell>
        <mxCell id="52CNj9GNZ4_Rj_LzGSZ5-33" value="10" style="edgeLabel;html=1;align=center;verticalAlign=middle;resizable=0;points=[];" vertex="1" connectable="0" parent="52CNj9GNZ4_Rj_LzGSZ5-23">
          <mxGeometry x="-0.2" relative="1" as="geometry">
            <mxPoint as="offset" />
          </mxGeometry>
        </mxCell>
        <mxCell id="52CNj9GNZ4_Rj_LzGSZ5-3" value="client stub" style="rounded=0;whiteSpace=wrap;html=1;sketch=1;fillColor=#fff2cc;strokeColor=#d6b656;" vertex="1" parent="1">
          <mxGeometry x="130" y="330" width="120" height="60" as="geometry" />
        </mxCell>
        <mxCell id="52CNj9GNZ4_Rj_LzGSZ5-16" style="edgeStyle=orthogonalEdgeStyle;rounded=0;orthogonalLoop=1;jettySize=auto;html=1;exitX=1;exitY=0.75;exitDx=0;exitDy=0;entryX=0;entryY=0.75;entryDx=0;entryDy=0;sketch=1;" edge="1" parent="1" source="52CNj9GNZ4_Rj_LzGSZ5-4" target="52CNj9GNZ4_Rj_LzGSZ5-8">
          <mxGeometry relative="1" as="geometry" />
        </mxCell>
        <mxCell id="52CNj9GNZ4_Rj_LzGSZ5-26" value="3" style="edgeLabel;html=1;align=center;verticalAlign=middle;resizable=0;points=[];" vertex="1" connectable="0" parent="52CNj9GNZ4_Rj_LzGSZ5-16">
          <mxGeometry x="0.1304" relative="1" as="geometry">
            <mxPoint as="offset" />
          </mxGeometry>
        </mxCell>
        <mxCell id="52CNj9GNZ4_Rj_LzGSZ5-22" style="edgeStyle=orthogonalEdgeStyle;rounded=0;orthogonalLoop=1;jettySize=auto;html=1;exitX=0.75;exitY=0;exitDx=0;exitDy=0;entryX=0.75;entryY=1;entryDx=0;entryDy=0;sketch=1;" edge="1" parent="1" source="52CNj9GNZ4_Rj_LzGSZ5-4" target="52CNj9GNZ4_Rj_LzGSZ5-3">
          <mxGeometry relative="1" as="geometry" />
        </mxCell>
        <mxCell id="52CNj9GNZ4_Rj_LzGSZ5-32" value="9" style="edgeLabel;html=1;align=center;verticalAlign=middle;resizable=0;points=[];" vertex="1" connectable="0" parent="52CNj9GNZ4_Rj_LzGSZ5-22">
          <mxGeometry relative="1" as="geometry">
            <mxPoint as="offset" />
          </mxGeometry>
        </mxCell>
        <mxCell id="52CNj9GNZ4_Rj_LzGSZ5-4" value="sockets" style="rounded=0;whiteSpace=wrap;html=1;sketch=1;fillColor=#fff2cc;strokeColor=#d6b656;" vertex="1" parent="1">
          <mxGeometry x="130" y="420" width="120" height="60" as="geometry" />
        </mxCell>
        <mxCell id="52CNj9GNZ4_Rj_LzGSZ5-5" value="" style="rounded=1;whiteSpace=wrap;html=1;fillColor=#dae8fc;strokeColor=#6c8ebf;sketch=1;" vertex="1" parent="1">
          <mxGeometry x="345" y="210" width="160" height="320" as="geometry" />
        </mxCell>
        <mxCell id="52CNj9GNZ4_Rj_LzGSZ5-19" style="edgeStyle=orthogonalEdgeStyle;rounded=0;orthogonalLoop=1;jettySize=auto;html=1;exitX=0.25;exitY=1;exitDx=0;exitDy=0;entryX=0.25;entryY=0;entryDx=0;entryDy=0;sketch=1;" edge="1" parent="1" source="52CNj9GNZ4_Rj_LzGSZ5-6" target="52CNj9GNZ4_Rj_LzGSZ5-7">
          <mxGeometry relative="1" as="geometry" />
        </mxCell>
        <mxCell id="52CNj9GNZ4_Rj_LzGSZ5-29" value="6" style="edgeLabel;html=1;align=center;verticalAlign=middle;resizable=0;points=[];" vertex="1" connectable="0" parent="52CNj9GNZ4_Rj_LzGSZ5-19">
          <mxGeometry x="-0.1333" y="-1" relative="1" as="geometry">
            <mxPoint as="offset" />
          </mxGeometry>
        </mxCell>
        <mxCell id="52CNj9GNZ4_Rj_LzGSZ5-6" value="Server functions" style="rounded=0;whiteSpace=wrap;html=1;sketch=1;fillColor=#fff2cc;strokeColor=#d6b656;" vertex="1" parent="1">
          <mxGeometry x="365" y="240" width="120" height="60" as="geometry" />
        </mxCell>
        <mxCell id="52CNj9GNZ4_Rj_LzGSZ5-18" style="edgeStyle=orthogonalEdgeStyle;rounded=0;orthogonalLoop=1;jettySize=auto;html=1;exitX=0.75;exitY=0;exitDx=0;exitDy=0;entryX=0.75;entryY=1;entryDx=0;entryDy=0;sketch=1;" edge="1" parent="1" source="52CNj9GNZ4_Rj_LzGSZ5-7" target="52CNj9GNZ4_Rj_LzGSZ5-6">
          <mxGeometry relative="1" as="geometry" />
        </mxCell>
        <mxCell id="52CNj9GNZ4_Rj_LzGSZ5-28" value="5" style="edgeLabel;html=1;align=center;verticalAlign=middle;resizable=0;points=[];" vertex="1" connectable="0" parent="52CNj9GNZ4_Rj_LzGSZ5-18">
          <mxGeometry x="-0.2" relative="1" as="geometry">
            <mxPoint as="offset" />
          </mxGeometry>
        </mxCell>
        <mxCell id="52CNj9GNZ4_Rj_LzGSZ5-20" style="edgeStyle=orthogonalEdgeStyle;rounded=0;orthogonalLoop=1;jettySize=auto;html=1;exitX=0.25;exitY=1;exitDx=0;exitDy=0;entryX=0.25;entryY=0;entryDx=0;entryDy=0;sketch=1;" edge="1" parent="1" source="52CNj9GNZ4_Rj_LzGSZ5-7" target="52CNj9GNZ4_Rj_LzGSZ5-8">
          <mxGeometry relative="1" as="geometry" />
        </mxCell>
        <mxCell id="52CNj9GNZ4_Rj_LzGSZ5-30" value="7" style="edgeLabel;html=1;align=center;verticalAlign=middle;resizable=0;points=[];" vertex="1" connectable="0" parent="52CNj9GNZ4_Rj_LzGSZ5-20">
          <mxGeometry x="-0.0667" y="-2" relative="1" as="geometry">
            <mxPoint as="offset" />
          </mxGeometry>
        </mxCell>
        <mxCell id="52CNj9GNZ4_Rj_LzGSZ5-7" value="server stub" style="rounded=0;whiteSpace=wrap;html=1;sketch=1;fillColor=#fff2cc;strokeColor=#d6b656;" vertex="1" parent="1">
          <mxGeometry x="365" y="330" width="120" height="60" as="geometry" />
        </mxCell>
        <mxCell id="52CNj9GNZ4_Rj_LzGSZ5-17" style="edgeStyle=orthogonalEdgeStyle;rounded=0;orthogonalLoop=1;jettySize=auto;html=1;exitX=0.75;exitY=0;exitDx=0;exitDy=0;entryX=0.75;entryY=1;entryDx=0;entryDy=0;sketch=1;" edge="1" parent="1" source="52CNj9GNZ4_Rj_LzGSZ5-8" target="52CNj9GNZ4_Rj_LzGSZ5-7">
          <mxGeometry relative="1" as="geometry" />
        </mxCell>
        <mxCell id="52CNj9GNZ4_Rj_LzGSZ5-27" value="4" style="edgeLabel;html=1;align=center;verticalAlign=middle;resizable=0;points=[];" vertex="1" connectable="0" parent="52CNj9GNZ4_Rj_LzGSZ5-17">
          <mxGeometry relative="1" as="geometry">
            <mxPoint as="offset" />
          </mxGeometry>
        </mxCell>
        <mxCell id="52CNj9GNZ4_Rj_LzGSZ5-21" style="edgeStyle=orthogonalEdgeStyle;rounded=0;orthogonalLoop=1;jettySize=auto;html=1;exitX=0;exitY=0.25;exitDx=0;exitDy=0;entryX=1;entryY=0.25;entryDx=0;entryDy=0;sketch=1;" edge="1" parent="1" source="52CNj9GNZ4_Rj_LzGSZ5-8" target="52CNj9GNZ4_Rj_LzGSZ5-4">
          <mxGeometry relative="1" as="geometry" />
        </mxCell>
        <mxCell id="52CNj9GNZ4_Rj_LzGSZ5-31" value="8" style="edgeLabel;html=1;align=center;verticalAlign=middle;resizable=0;points=[];" vertex="1" connectable="0" parent="52CNj9GNZ4_Rj_LzGSZ5-21">
          <mxGeometry x="-0.0783" y="-1" relative="1" as="geometry">
            <mxPoint as="offset" />
          </mxGeometry>
        </mxCell>
        <mxCell id="52CNj9GNZ4_Rj_LzGSZ5-8" value="sockets" style="rounded=0;whiteSpace=wrap;html=1;sketch=1;fillColor=#fff2cc;strokeColor=#d6b656;" vertex="1" parent="1">
          <mxGeometry x="365" y="420" width="120" height="60" as="geometry" />
        </mxCell>
        <mxCell id="52CNj9GNZ4_Rj_LzGSZ5-9" value="" style="endArrow=none;dashed=1;html=1;rounded=0;sketch=1;" edge="1" parent="1">
          <mxGeometry width="50" height="50" relative="1" as="geometry">
            <mxPoint x="560" y="410" as="sourcePoint" />
            <mxPoint x="70" y="410" as="targetPoint" />
          </mxGeometry>
        </mxCell>
        <mxCell id="52CNj9GNZ4_Rj_LzGSZ5-10" value="Kernel" style="rounded=0;whiteSpace=wrap;html=1;sketch=1;gradientColor=none;strokeColor=none;fillColor=none;" vertex="1" parent="1">
          <mxGeometry x="160" y="490" width="60" height="30" as="geometry" />
        </mxCell>
        <mxCell id="52CNj9GNZ4_Rj_LzGSZ5-12" value="Kernel" style="rounded=0;whiteSpace=wrap;html=1;sketch=1;gradientColor=none;strokeColor=none;fillColor=none;" vertex="1" parent="1">
          <mxGeometry x="395" y="490" width="60" height="30" as="geometry" />
        </mxCell>
        <mxCell id="52CNj9GNZ4_Rj_LzGSZ5-14" value="" style="endArrow=classic;html=1;rounded=0;exitX=0.25;exitY=1;exitDx=0;exitDy=0;entryX=0.25;entryY=0;entryDx=0;entryDy=0;sketch=1;" edge="1" parent="1" source="52CNj9GNZ4_Rj_LzGSZ5-2" target="52CNj9GNZ4_Rj_LzGSZ5-3">
          <mxGeometry width="50" height="50" relative="1" as="geometry">
            <mxPoint x="400" y="420" as="sourcePoint" />
            <mxPoint x="450" y="370" as="targetPoint" />
          </mxGeometry>
        </mxCell>
        <mxCell id="52CNj9GNZ4_Rj_LzGSZ5-24" value="1" style="edgeLabel;html=1;align=center;verticalAlign=middle;resizable=0;points=[];" vertex="1" connectable="0" parent="52CNj9GNZ4_Rj_LzGSZ5-14">
          <mxGeometry x="-0.1333" y="-1" relative="1" as="geometry">
            <mxPoint as="offset" />
          </mxGeometry>
        </mxCell>
        <mxCell id="52CNj9GNZ4_Rj_LzGSZ5-15" value="" style="endArrow=classic;html=1;rounded=0;exitX=0.25;exitY=1;exitDx=0;exitDy=0;entryX=0.25;entryY=0;entryDx=0;entryDy=0;sketch=1;" edge="1" parent="1" source="52CNj9GNZ4_Rj_LzGSZ5-3" target="52CNj9GNZ4_Rj_LzGSZ5-4">
          <mxGeometry width="50" height="50" relative="1" as="geometry">
            <mxPoint x="170" y="310" as="sourcePoint" />
            <mxPoint x="170" y="340" as="targetPoint" />
          </mxGeometry>
        </mxCell>
        <mxCell id="52CNj9GNZ4_Rj_LzGSZ5-25" value="2" style="edgeLabel;html=1;align=center;verticalAlign=middle;resizable=0;points=[];" vertex="1" connectable="0" parent="52CNj9GNZ4_Rj_LzGSZ5-15">
          <mxGeometry x="-0.2" relative="1" as="geometry">
            <mxPoint as="offset" />
          </mxGeometry>
        </mxCell>
        <mxCell id="52CNj9GNZ4_Rj_LzGSZ5-34" value="RPC Client" style="rounded=0;whiteSpace=wrap;html=1;sketch=1;gradientColor=none;strokeColor=none;fillColor=none;" vertex="1" parent="1">
          <mxGeometry x="150" y="535" width="80" height="30" as="geometry" />
        </mxCell>
        <mxCell id="52CNj9GNZ4_Rj_LzGSZ5-35" value="RPC Server" style="rounded=0;whiteSpace=wrap;html=1;sketch=1;gradientColor=none;strokeColor=none;fillColor=none;" vertex="1" parent="1">
          <mxGeometry x="385" y="535" width="80" height="30" as="geometry" />
        </mxCell>
      </root>
    </mxGraphModel>
  </diagram>
</mxfile>
